<?xml version="1.0" encoding="UTF-8"?>
<svg id="Lager_1" xmlns="http://www.w3.org/2000/svg" viewBox="0 0 461.86 461.86">
  <defs>
    <style>
      .cls-1 {
        fill: #54b848;
      }
    </style>
  </defs>
  <path class="cls-1" d="M230.93,0C103.39,0,0,103.39,0,230.93c0,127.54,103.39,230.93,230.93,230.93,127.54,0,230.93-103.39,230.93-230.93C461.86,103.39,358.47,0,230.93,0ZM217.2,94.06h27.47c5.05,0,9.12,4.06,9.11,9.11v104.92h104.92c5.05,0,9.11,4.06,9.11,9.11v27.47c0,5.05-4.06,9.11-9.11,9.11h-104.92v104.92c0,5.05-4.06,9.11-9.11,9.11h-27.47c-5.05,0-9.12-4.06-9.11-9.11v-104.92h-104.92c-5.05,0-9.11-4.06-9.11-9.11v-27.47c0-5.05,4.06-9.11,9.11-9.11h104.92v-104.92c0-5.05,4.06-9.11,9.11-9.11h0Z"/>
</svg>